<!-- Tuile d'app / favicon. L'œil est un trou : il laisse voir l'aplat de la tuile. -->
<svg xmlns="http://www.w3.org/2000/svg" viewBox="0 0 96 96" role="img" aria-label="Kogia">
  <rect width="96" height="96" rx="24" fill="#2547E8"/>
  <g transform="translate(16,16)" color="#FFFFFF"><path fill="currentColor" fill-rule="evenodd" d="M18 10 a10 10 0 0 1 10 10 v8.5 L51 9 L55.5 13.5 Q43.5 25 40.5 32 Q43.5 39 55.5 50.5 L51 55 L28 35.5 V44 a10 10 0 0 1 -20 0 V20 A10 10 0 0 1 18 10 Z M18 17.5 a3.6 3.6 0 1 0 0 7.2 a3.6 3.6 0 0 0 0 -7.2 Z"/></g>
</svg>
