<!-- Tuile d'application / favicon. Le cachalot, blanc, sur l'aplat du produit. -->
<svg xmlns="http://www.w3.org/2000/svg" viewBox="0 0 96 96" role="img" aria-label="Kogia">
  <rect width="96" height="96" rx="24" fill="#2547E8"/>
  <g transform="translate(6,14) scale(.64)">
    <path fill="#FFFFFF" fill-rule="evenodd" d="M12 54 C12 34 28 22 52 22 C74 22 88 32 91 46 C94 38 99 30 107 25 C105 32 104 38 105 43 C110 41 117 41 124 44 C117 48 111 50 106 50 C102 62 92 70 76 73 C58 76 34 74 22 68 C14 64 12 60 12 54 Z M38.4 45 a4.4 4.4 0 1 1 -8.8 0 a4.4 4.4 0 1 1 8.8 0 Z"/>
    <path d="M42 12 q-1 -7 5 -9 M50 12 q4 -6 11 -6" fill="none" stroke="#FFFFFF" stroke-width="4" stroke-linecap="round" opacity=".85"/>
  </g>
</svg>
