<!-- Coreon Edu — product lockup. Same whale, same geometry as the group.
     Only the accent changes: indigo → violet (trust, care, family).
     "par Kogia Group" is carried in the product footer, not in the lockup. -->
<svg xmlns="http://www.w3.org/2000/svg" viewBox="0 0 380 96" width="380" height="96"
     font-family="Sora, system-ui, sans-serif" role="img" aria-label="Coreon Edu">
  <defs>
    <linearGradient id="k-edu" x1="0" y1="0" x2="1" y2="1">
      <stop offset="0" stop-color="#4F57DE"/>
      <stop offset="1" stop-color="#8B5CF6"/>
    </linearGradient>
  </defs>
  <g transform="translate(0,4) scale(.82)">
    <path fill="url(#k-edu)" d="M12 54 C12 34 28 22 52 22 C74 22 88 32 91 46 C94 38 99 30 107 25 C105 32 104 38 105 43 C110 41 117 41 124 44 C117 48 111 50 106 50 C102 62 92 70 76 73 C58 76 34 74 22 68 C14 64 12 60 12 54 Z"/>
    <circle cx="34" cy="45" r="4.2" fill="#0E2135"/>
    <path d="M44 42 q7 9 -1 17" fill="none" stroke="#FDF6F0" stroke-width="3.2" stroke-linecap="round" opacity=".75"/>
  </g>
  <text x="118" y="52" font-size="34" font-weight="800" fill="#0E2135" letter-spacing="-0.6">coreon</text>
  <text x="120" y="72" font-size="11" font-weight="700" fill="#4F57DE" letter-spacing="4.5">EDU</text>
</svg>
