<!-- Kogia Harmony — favicon / tuile d'application. Rayon 24 = le rayon de tuile.
     Remplace la feuille/étincelle de l'identité v1, retirée par le livre de marque. -->
<svg xmlns="http://www.w3.org/2000/svg" viewBox="0 0 96 96" role="img" aria-label="Kogia">
  <defs>
    <linearGradient id="k-tile" x1="0" y1="0" x2="1" y2="1">
      <stop offset="0" stop-color="#4F57DE"/>
      <stop offset="1" stop-color="#22D3EE"/>
    </linearGradient>
  </defs>
  <rect width="96" height="96" rx="24" fill="url(#k-tile)"/>
  <g transform="translate(6,16) scale(.66)">
    <path fill="#FFFFFF" d="M12 54 C12 34 28 22 52 22 C74 22 88 32 91 46 C94 38 99 30 107 25 C105 32 104 38 105 43 C110 41 117 41 124 44 C117 48 111 50 106 50 C102 62 92 70 76 73 C58 76 34 74 22 68 C14 64 12 60 12 54 Z"/>
    <circle cx="34" cy="45" r="4.4" fill="#0E2135"/>
    <!-- The Kogia Crescent, knocked out of the white body in the brand indigo. -->
    <path d="M44 42 q7 9 -1 17" fill="none" stroke="#4F57DE" stroke-width="3.4" stroke-linecap="round" opacity=".85"/>
  </g>
</svg>
