<svg xmlns="http://www.w3.org/2000/svg" viewBox="0 0 512 512" width="512" height="512" role="img" aria-labelledby="kg-avatar-lulu-title">
  <title id="kg-avatar-lulu-title">Lulu, la farceuse</title>
  <path d="M96 512 V400 C96 340 160 300 256 300 C352 300 416 340 416 400 V512 Z" fill="#E2574C" stroke="#1F3346" stroke-width="7" stroke-linejoin="round" stroke-linecap="round"/>
  <path d="M186 306 C210 280 302 280 326 306 C300 322 212 322 186 306 Z" fill="#F6C86A" stroke="#1F3346" stroke-width="7" stroke-linejoin="round" stroke-linecap="round"/>
  <path d="M132 236 C120 150 170 70 256 62 C336 56 386 118 392 176 C404 176 420 186 428 204 C416 214 402 218 390 218 C372 262 318 296 256 302 C196 306 150 288 132 236 Z" fill="#F2A65A" stroke="#1F3346" stroke-width="7" stroke-linejoin="round" stroke-linecap="round"/>
  <path d="M150 214 C170 196 214 190 246 212 C262 236 254 274 232 292 C198 300 168 286 150 250 Z" fill="#F1E8D2" stroke="#1F3346" stroke-width="4"/>
    <circle cx="212" cy="244" r="8" fill="#D9CDB2"/><circle cx="236" cy="268" r="6" fill="#D9CDB2"/>
  <path d="M290 154 q10 -10 20 0" fill="none" stroke="#1F2430" stroke-width="7" stroke-linecap="round"/>
  <path d="M318 206 q18 12 36 -4" fill="none" stroke="#1F2430" stroke-width="5" stroke-linecap="round"/>
  <g stroke="#1F3346" stroke-width="7" stroke-linejoin="round"><path d="M218 110 L264 28 L310 110 Z" fill="#7C4DFF"/><path d="M236 78 h56" stroke="#FFFFFF" stroke-width="6"/><circle cx="264" cy="28" r="14" fill="#F6C86A"/></g>
</svg>
